<svg aria-hidden="true" style="position:absolute;width:0;height:0;overflow:hidden" xmlns="http://www.w3.org/2000/svg">
    <defs>
       <symbol id="icon-clock" viewBox="0 0 32 32">
        <path d="M16 32c-8.823 0-16-7.177-16-16s7.177-16 16-16 16 7.177 16 16-7.177 16-16 16zM16 2.667c-7.352 0-13.333 5.981-13.333 13.333s5.981 13.333 13.333 13.333 13.333-5.981 13.333-13.333-5.981-13.333-13.333-13.333zM22.667 16c0-0.737-0.596-1.333-1.333-1.333h-4v-6.667c0-0.737-0.597-1.333-1.333-1.333s-1.333 0.596-1.333 1.333v8c0 0.737 0.597 1.333 1.333 1.333h5.333c0.737 0 1.333-0.596 1.333-1.333z"></path>
    </symbol>

<symbol id="icon-pin" viewBox="0 0 32 32">
<path d="M15.944 32.011l-0.929-0.797c-1.281-1.073-12.469-10.735-12.469-17.803 0-7.4 5.999-13.399 13.399-13.399s13.399 5.999 13.399 13.399c0 7.068-11.188 16.73-12.464 17.808l-0.935 0.791zM15.944 2.91c-5.797 0.007-10.495 4.704-10.501 10.501 0 4.44 6.883 11.533 10.501 14.78 3.618-3.248 10.501-10.345 10.501-14.78-0.007-5.797-4.704-10.495-10.501-10.501z"></path>
<path d="M15.944 18.722c-2.933 0-5.311-2.378-5.311-5.311s2.378-5.311 5.311-5.311 5.311 2.378 5.311 5.311-2.378 5.311-5.311 5.311zM15.944 10.755c-1.467 0-2.656 1.189-2.656 2.656s1.189 2.656 2.656 2.656 2.656-1.189 2.656-2.656-1.189-2.656-2.656-2.656z"></path>
</symbol>

<symbol id="icon-phone" viewBox="0 0 32 32">
<path d="M17.333 1.333c0-0.736 0.597-1.333 1.333-1.333v0c7.36 0.008 13.325 5.973 13.333 13.333v0.001c0 0.736-0.597 1.333-1.333 1.333s-1.333-0.597-1.333-1.333v0c-0.007-5.888-4.778-10.66-10.666-10.667h-0.001c-0.736 0-1.333-0.597-1.333-1.333v0zM18.667 8c2.946 0 5.333 2.388 5.333 5.333v0c0 0.736 0.597 1.333 1.333 1.333s1.333-0.597 1.333-1.333v0c-0.005-4.416-3.584-7.995-8-8h-0c-0.736 0-1.333 0.597-1.333 1.333s0.597 1.333 1.333 1.333v0zM30.791 22.319c0.746 0.748 1.207 1.779 1.207 2.919s-0.461 2.171-1.207 2.919l0-0-1.213 1.399c-10.92 10.455-37.493-16.112-27.2-27.067l1.533-1.333c0.738-0.716 1.747-1.157 2.858-1.157 1.138 0 2.168 0.463 2.912 1.21l0 0c0.041 0.041 2.512 3.251 2.512 3.251 0.705 0.74 1.139 1.744 1.139 2.85 0 1.11-0.438 2.118-1.15 2.861l0.001-0.001-1.544 1.941c1.763 4.208 5.038 7.489 9.129 9.218l0.112 0.042 1.953-1.553c0.741-0.71 1.749-1.148 2.858-1.148 1.106 0 2.11 0.434 2.851 1.141l-0.002-0.002s3.208 2.469 3.249 2.511zM28.956 24.257s-3.191-2.455-3.232-2.496c-0.265-0.263-0.63-0.425-1.033-0.425s-0.768 0.162-1.033 0.425l0-0c-0.036 0.037-2.725 2.18-2.725 2.18-0.226 0.181-0.515 0.29-0.83 0.29-0.171 0-0.334-0.032-0.484-0.091l0.009 0.003c-5.453-2.070-9.683-6.295-11.715-11.607l-0.046-0.137c-0.062-0.148-0.098-0.321-0.098-0.502 0-0.316 0.11-0.606 0.293-0.834l-0.002 0.003s2.143-2.691 2.179-2.725c0.263-0.265 0.425-0.63 0.425-1.033s-0.162-0.768-0.425-1.033l0 0c-0.041-0.040-2.496-3.233-2.496-3.233-0.258-0.232-0.602-0.375-0.979-0.375-0.404 0-0.769 0.163-1.034 0.427l0-0-1.533 1.333c-7.523 9.045 15.505 30.796 23.432 23.305l1.215-1.4c0.295-0.274 0.479-0.664 0.479-1.097 0-0.376-0.139-0.719-0.367-0.981l0.002 0.002z"></path>
</symbol>

<symbol id="icon-arrow-right" viewBox="0 0 32 32">
<path d="M0 16c0 8.837 7.163 16 16 16s16-7.163 16-16c0-8.837-7.163-16-16-16v0c-8.833 0.010-15.99 7.167-16 15.999v0.001zM20.552 14.115c0.482 0.483 0.781 1.149 0.781 1.885s-0.298 1.403-0.781 1.885l-6.231 6.231-1.885-1.885 6.231-6.231-6.281-6.283 1.881-1.885z"></path>
</symbol>

<symbol id="icon-arrow-down" viewBox="0 0 32 32">
<path d="M16 0c-8.837 0-16 7.163-16 16s7.163 16 16 16c8.837 0 16-7.163 16-16v0c-0.010-8.833-7.167-15.99-15.999-16h-0.001zM17.885 20.552c-0.483 0.482-1.149 0.781-1.885 0.781s-1.403-0.298-1.885-0.781l-6.231-6.231 1.885-1.885 6.231 6.231 6.283-6.281 1.885 1.881z"></path>
</symbol>

<symbol id="icon-instagram" viewBox="0 0 32 32">
<path d="M16 2.883c4.272 0 4.779 0.016 6.465 0.093 1.744 0.080 3.54 0.477 4.811 1.748 1.283 1.283 1.668 3.061 1.748 4.811 0.077 1.687 0.093 2.193 0.093 6.465s-0.016 4.779-0.093 6.465c-0.079 1.735-0.485 3.548-1.748 4.811-1.283 1.283-3.060 1.668-4.811 1.748-1.687 0.077-2.193 0.093-6.465 0.093s-4.779-0.016-6.465-0.093c-1.721-0.079-3.559-0.495-4.811-1.748-1.276-1.276-1.668-3.072-1.748-4.811-0.077-1.687-0.093-2.193-0.093-6.465s0.016-4.779 0.093-6.465c0.079-1.728 0.489-3.552 1.748-4.811 1.28-1.28 3.065-1.668 4.811-1.748 1.687-0.077 2.193-0.093 6.465-0.093zM16 0c-4.345 0-4.891 0.019-6.597 0.096-2.473 0.113-4.929 0.801-6.717 2.589-1.795 1.795-2.476 4.245-2.589 6.717-0.077 1.707-0.096 2.252-0.096 6.597s0.019 4.891 0.096 6.597c0.113 2.471 0.804 4.933 2.589 6.717 1.793 1.793 4.248 2.476 6.717 2.589 1.707 0.077 2.252 0.096 6.597 0.096s4.891-0.019 6.597-0.096c2.472-0.113 4.931-0.803 6.717-2.589 1.796-1.796 2.476-4.245 2.589-6.717 0.077-1.707 0.096-2.252 0.096-6.597s-0.019-4.891-0.096-6.597c-0.113-2.473-0.803-4.931-2.589-6.717-1.791-1.791-4.252-2.477-6.717-2.589-1.707-0.077-2.252-0.096-6.597-0.096z"></path>
<path d="M16 7.784c-4.537 0-8.216 3.679-8.216 8.216s3.679 8.216 8.216 8.216 8.216-3.679 8.216-8.216c0-4.537-3.679-8.216-8.216-8.216zM16 21.333c-2.945 0-5.333-2.388-5.333-5.333s2.388-5.333 5.333-5.333 5.333 2.388 5.333 5.333-2.388 5.333-5.333 5.333z"></path>
<path d="M26.461 7.459c0 1.060-0.86 1.92-1.92 1.92s-1.92-0.86-1.92-1.92c0-1.060 0.86-1.92 1.92-1.92s1.92 0.86 1.92 1.92z"></path>
</symbol>

<symbol id="icon-neurology" viewBox="0 0 32 32">
<path d="M14.125 2.294c-1.338 0.225-2.713 0.894-3.65 1.775-0.35 0.325-0.419 0.362-0.55 0.313-0.287-0.106-0.969-0.144-1.431-0.075-0.325 0.050-0.625 0.15-1 0.338-0.45 0.225-0.563 0.263-0.719 0.213-0.1-0.031-0.487-0.056-0.869-0.063-0.594 0-0.756 0.019-1.188 0.169-0.688 0.237-1.131 0.519-1.625 1.044-0.406 0.431-0.906 1.294-0.906 1.563 0 0.144-0.169 0.306-0.313 0.306-0.275 0-0.825 0.275-1.144 0.562-0.487 0.444-0.688 0.887-0.719 1.594-0.019 0.469 0 0.625 0.113 0.925 0.075 0.2 0.2 0.438 0.275 0.525l0.144 0.162-0.181 0.269c-0.263 0.394-0.362 0.738-0.362 1.275 0 0.525 0.1 0.894 0.344 1.262 0.138 0.2 0.156 0.306 0.156 0.75 0.006 1.244 0.563 2.381 1.519 3.094 0.744 0.55 1.438 0.769 2.487 0.769h0.662l0.075 0.344c0.044 0.194 0.194 0.581 0.331 0.863 0.206 0.419 0.369 0.625 0.856 1.106 0.688 0.675 1.219 1.012 2.163 1.35s1.569 0.419 2.781 0.375c0.569-0.025 1.094-0.044 1.175-0.044 0.275-0.012 0.956 0.387 1.431 0.837 1.019 0.969 1.75 2.444 2.331 4.694 0.131 0.506 0.288 0.981 0.35 1.044 0.1 0.113 0.219 0.119 1.894 0.119 1.962 0 2.019-0.012 2.1-0.369 0.025-0.131-0.012-0.306-0.144-0.613-0.231-0.538-0.363-0.95-0.444-1.419-0.038-0.206-0.069-0.375-0.069-0.381s0.281 0.081 0.619 0.2c1.656 0.563 3.512 0.725 4.575 0.4 1.369-0.431 2.469-1.712 2.663-3.1 0.038-0.281 0.038-0.281 0.294-0.281 1.063-0.006 2.113-0.656 2.837-1.769 0.663-1.012 0.95-2.050 0.994-3.594 0.050-1.581-0.137-2.481-0.762-3.694l-0.281-0.544 0.038-0.588c0.087-1.387-0.512-2.669-1.587-3.4l-0.431-0.3-0.044-0.375c-0.056-0.569-0.306-1.056-0.731-1.456-0.2-0.181-0.462-0.369-0.587-0.412-0.175-0.063-0.219-0.112-0.219-0.244 0-0.306-0.244-1.131-0.45-1.519-0.262-0.487-0.825-1.094-1.325-1.419-0.7-0.463-1.875-0.719-2.637-0.581l-0.319 0.063-0.15-0.319c-0.2-0.425-0.663-0.881-1.106-1.087-0.313-0.15-0.431-0.169-0.988-0.169-0.606 0-0.656 0.013-1.069 0.225l-0.438 0.225-0.494-0.25c-1.081-0.544-1.938-0.738-3.238-0.725-0.481 0.006-0.95 0.025-1.037 0.038zM16.406 3.413c0.65 0.125 1.325 0.394 1.906 0.75 0.6 0.369 0.775 0.375 1.125 0.063 0.6-0.544 1.281-0.556 1.831-0.044 0.238 0.219 0.337 0.412 0.387 0.787 0.031 0.194 0.1 0.356 0.2 0.456 0.169 0.169 0.363 0.169 1.019-0.019 0.431-0.119 0.813-0.119 1.269 0 1.294 0.338 2.163 1.45 2.169 2.756 0 0.475 0.131 0.669 0.512 0.769 0.512 0.131 0.906 0.5 1.012 0.956 0.038 0.162 0.031 0.162-0.356 0.206-0.869 0.1-1.831 0.531-2.306 1.031-0.256 0.269-0.288 0.412-0.144 0.681 0.169 0.338 0.506 0.344 0.938 0.031 0.587-0.425 1.387-0.713 1.994-0.713 0.3 0 0.731 0.244 1.137 0.65 0.656 0.656 0.938 1.494 0.788 2.35-0.106 0.637-0.1 0.713 0.15 1.106 0.719 1.112 1.012 2.388 0.894 3.869-0.163 1.981-1.119 3.581-2.369 3.944-0.294 0.081-0.394 0.087-0.719 0.019-0.875-0.188-0.988-0.087-1.038 0.869-0.031 0.606-0.056 0.719-0.256 1.144-0.387 0.819-1.131 1.394-2.019 1.556-1 0.188-3.1-0.206-4.5-0.844-0.906-0.419-1.331-1.019-1.569-2.219-0.1-0.512-0.2-0.669-0.462-0.725-0.2-0.044-0.525 0.094-0.587 0.25-0.125 0.325 0.069 1.262 0.4 1.956 0.181 0.381 0.356 0.631 0.688 0.969l0.444 0.45 0.019 0.563c0.025 0.475 0.169 1.212 0.325 1.619 0.038 0.087-0.056 0.1-0.894 0.1h-0.938l-0.075-0.363c-0.156-0.688-0.7-2.231-1.038-2.944-0.45-0.925-0.95-1.675-1.5-2.231s-1.069-0.894-1.769-1.15c-1.106-0.4-1.75-0.863-2.050-1.475-0.15-0.306-0.162-0.394-0.137-0.856 0.025-0.394 0.069-0.587 0.194-0.837 0.262-0.506 0.213-0.806-0.137-0.956-0.275-0.113-0.481-0.031-0.694 0.262-0.55 0.762-0.588 2.275-0.081 3.106 0.075 0.113 0.256 0.337 0.406 0.494l0.269 0.281-0.469-0.038c-0.262-0.025-0.725-0.113-1.031-0.2-1.612-0.469-2.737-1.456-3.063-2.688-0.144-0.556-0.131-0.594 0.256-0.875 0.506-0.363 1.281-1.194 1.575-1.694 0.325-0.544 0.356-0.881 0.1-1.081-0.2-0.156-0.444-0.169-0.631-0.037-0.075 0.056-0.231 0.269-0.344 0.481-0.362 0.681-1.525 1.731-2.175 1.969-0.119 0.038-0.419 0.075-0.669 0.081-1.269 0.006-2.381-0.844-2.744-2.094-0.081-0.294-0.094-0.494-0.063-0.975 0.044-0.606 0.044-0.606-0.137-0.819-0.281-0.319-0.387-0.575-0.387-0.931 0-0.4 0.212-0.794 0.525-0.988 0.244-0.156 0.375-0.419 0.319-0.65-0.025-0.088-0.169-0.269-0.319-0.387-0.363-0.294-0.525-0.625-0.525-1.037 0-0.706 0.531-1.194 1.325-1.213 0.55-0.012 0.638-0.094 0.763-0.719 0.138-0.638 0.369-1.094 0.788-1.506 0.769-0.775 1.769-1.019 2.856-0.706 0.381 0.112 0.519 0.081 0.838-0.175 0.506-0.406 1.287-0.569 1.931-0.394 0.225 0.063 0.525 0.125 0.675 0.144 0.256 0.025 0.275 0.013 0.594-0.331 0.7-0.769 1.806-1.444 2.813-1.719 0.906-0.25 1.756-0.275 2.762-0.087z"></path>
<path d="M14.056 5c-0.95 0.169-2.044 0.606-2.794 1.119-0.594 0.4-1.238 0.981-1.325 1.194-0.069 0.175-0.069 0.213 0.044 0.362 0.213 0.281 0.412 0.256 0.819-0.119 1-0.919 2.013-1.444 3.275-1.706 0.519-0.106 1.681-0.131 2.206-0.037 0.375 0.063 0.613-0.025 0.644-0.244 0.038-0.263-0.044-0.431-0.25-0.506-0.244-0.094-2.194-0.144-2.619-0.063z"></path>
<path d="M19.306 5.894c-0.744 0.281-1.325 0.975-1.681 2.019-0.212 0.619-0.125 0.963 0.256 0.963 0.244 0 0.337-0.119 0.525-0.656 0.194-0.575 0.519-1.094 0.856-1.362 0.656-0.525 1.813-0.081 2.281 0.881 0.156 0.325 0.175 0.413 0.163 0.95-0.012 0.662 0.050 0.813 0.363 0.813 0.256 0 0.413-0.244 0.462-0.725 0.125-1.131-0.506-2.237-1.55-2.719-0.369-0.169-0.544-0.206-0.95-0.225-0.313-0.013-0.581 0.013-0.725 0.063z"></path>
<path d="M7.563 6.669c-0.856 1.163-0.888 2.519-0.088 3.544 0.306 0.387 0.787 0.731 1.2 0.856l0.262 0.075-0.044 0.319c-0.206 1.344 0.175 2.625 1.044 3.556 0.344 0.363 0.444 0.438 0.606 0.438 0.269 0 0.394-0.119 0.394-0.375 0-0.181-0.056-0.281-0.325-0.55-0.181-0.181-0.425-0.481-0.531-0.669-0.231-0.381-0.456-1.181-0.456-1.613 0-0.375 0.125-0.981 0.213-1.050 0.037-0.031 0.25-0.088 0.475-0.125 0.544-0.106 1.55-0.594 1.625-0.8 0.081-0.206-0.019-0.444-0.219-0.537-0.144-0.063-0.225-0.044-0.675 0.188-1.262 0.637-2.206 0.588-2.856-0.156-0.331-0.375-0.469-0.738-0.463-1.238 0-0.506 0.162-0.912 0.581-1.463 0.281-0.375 0.306-0.475 0.156-0.681-0.069-0.1-0.156-0.138-0.344-0.138-0.231 0-0.263 0.025-0.556 0.419z"></path>
<path d="M14.35 8.012c-0.063 0.088-0.1 0.275-0.1 0.494 0 0.869 0.294 1.606 0.844 2.112 1.006 0.919 2.381 0.719 3.706-0.537 0.369-0.35 0.45-0.463 0.45-0.619 0-0.231-0.169-0.4-0.4-0.4-0.131 0-0.3 0.119-0.65 0.444-0.762 0.694-1.494 0.988-2.044 0.806-0.338-0.113-0.744-0.512-0.906-0.894-0.088-0.2-0.156-0.525-0.181-0.831-0.019-0.281-0.075-0.556-0.125-0.612-0.125-0.15-0.481-0.131-0.594 0.038z"></path>
<path d="M3.575 11.169c-0.044 0.019-0.106 0.1-0.138 0.181-0.1 0.25 0.025 0.444 0.419 0.644 0.456 0.238 0.525 0.3 0.731 0.594 0.219 0.319 0.219 0.756 0.013 1.206-0.244 0.519-0.681 0.762-1.506 0.844-0.125 0.012-0.212 0.075-0.281 0.188-0.081 0.156-0.081 0.194 0 0.344 0.119 0.206 0.35 0.262 0.85 0.206 0.737-0.088 1.388-0.563 1.694-1.238 0.219-0.469 0.269-1.175 0.112-1.631-0.25-0.756-1.375-1.55-1.894-1.338z"></path>
<path d="M20.125 11.219c-0.481 0.131-1.294 0.544-1.606 0.813-0.219 0.188-0.269 0.269-0.269 0.438 0 0.15 0.044 0.244 0.137 0.306 0.206 0.144 0.313 0.125 0.656-0.113 0.781-0.537 1.656-0.831 2.231-0.756 0.519 0.069 0.944 0.313 1.538 0.9 0.431 0.419 0.6 0.637 0.762 0.975l0.206 0.438v1.037c0 1.131 0.031 1.244 0.337 1.244 0.394 0 0.494-0.281 0.5-1.419 0.006-0.8-0.069-1.175-0.356-1.769-0.325-0.669-1.238-1.575-1.925-1.919-0.469-0.225-0.519-0.238-1.175-0.25-0.462-0.012-0.806 0.012-1.038 0.075z"></path>
<path d="M12.475 14.387c-0.225 0.319-0.125 0.494 0.475 0.813 0.613 0.331 1.213 0.863 1.45 1.3 0.156 0.294 0.175 0.375 0.15 0.744-0.019 0.281-0.088 0.531-0.213 0.788-0.238 0.494-0.825 1.081-1.294 1.306-0.419 0.194-0.544 0.381-0.431 0.631 0.137 0.294 0.331 0.319 0.775 0.113 0.662-0.313 1.181-0.8 1.644-1.538 0.044-0.075 0.231-0.125 0.625-0.169 0.969-0.119 2.087-0.569 2.712-1.1 0.325-0.269 0.212-0.775-0.169-0.775-0.075 0-0.35 0.15-0.619 0.331-0.525 0.356-1.238 0.625-1.844 0.7l-0.356 0.044v-0.4c0-0.225-0.019-0.488-0.044-0.587-0.137-0.581-0.681-1.25-1.412-1.756-0.869-0.6-1.262-0.719-1.45-0.444z"></path>
<path d="M26.938 15.706c-0.1 0.050-0.169 0.15-0.194 0.294-0.025 0.119-0.075 0.381-0.119 0.575-0.113 0.563-0.394 1.056-0.844 1.475-1.019 0.956-1.869 0.919-2.931-0.113-0.387-0.369-0.488-0.438-0.669-0.438-0.281 0-0.369 0.094-0.369 0.381 0 0.206 0.050 0.275 0.506 0.706 0.613 0.575 1.231 0.906 1.794 0.956l0.375 0.038-0.113 0.319c-0.256 0.744-0.663 1.313-1.212 1.694-0.2 0.137-0.369 0.306-0.387 0.387-0.050 0.188 0.119 0.444 0.319 0.494 0.344 0.087 1.219-0.65 1.669-1.406 0.2-0.344 0.481-1.106 0.575-1.569 0.025-0.106 0.125-0.206 0.331-0.313 0.719-0.375 1.406-1.238 1.675-2.081 0.175-0.538 0.212-1.231 0.081-1.344-0.15-0.113-0.331-0.137-0.488-0.056z"></path>
</symbol>

<symbol id="icon-doctors" viewBox="0 0 32 32">
<path d="M15.5 0.119c-1.344 0.3-2.769 1.025-4.094 2.087-0.238 0.194-0.744 0.519-1.113 0.712-1.25 0.663-1.644 1.306-1.713 2.8-0.056 1.181 0.219 2.563 0.813 4.15l0.213 0.563-0.175 0.075c-0.262 0.106-0.706 0.613-0.831 0.944-0.15 0.381-0.119 1.156 0.056 1.519 0.181 0.375 0.65 0.813 1.012 0.944 0.306 0.106 0.306 0.113 0.425 0.519 0.156 0.55 0.6 1.425 0.963 1.906l0.3 0.394-0.181 0.113c-0.338 0.194-0.981 0.85-1.275 1.288-0.238 0.363-0.313 0.431-0.456 0.431-0.1 0-0.444 0.069-0.769 0.15-2.975 0.756-5.181 2.962-5.969 5.969-0.125 0.475-0.163 0.806-0.188 1.613-0.031 0.9-0.019 1.081 0.106 1.619 0.244 1.050 0.944 2.219 1.725 2.869 0.469 0.387 1.213 0.806 1.781 1.006l0.525 0.181 9.219 0.019c6.188 0.012 9.319-0.006 9.525-0.050 0.506-0.106 1.225-0.425 1.762-0.781 0.956-0.637 1.706-1.625 2.094-2.769 0.188-0.556 0.206-0.681 0.231-1.544 0.031-1.106-0.069-1.788-0.4-2.781-0.7-2.094-2.244-3.819-4.281-4.775-0.631-0.3-1.519-0.581-2.025-0.637-0.3-0.038-0.319-0.050-0.525-0.4-0.231-0.406-0.837-1.038-1.256-1.319-0.15-0.1-0.281-0.194-0.294-0.206-0.012-0.006 0.094-0.163 0.231-0.35 0.331-0.444 0.762-1.3 0.944-1.869 0.081-0.256 0.188-0.469 0.244-0.488 0.581-0.175 1.087-0.581 1.319-1.069 0.163-0.331 0.219-0.95 0.125-1.306-0.106-0.375-0.431-0.838-0.769-1.056-0.156-0.106-0.269-0.219-0.244-0.25 0.031-0.031 0.156-0.3 0.281-0.6 0.825-1.95 0.794-4.188-0.087-6.013-0.363-0.756-0.719-1.263-1.313-1.856-0.844-0.85-1.725-1.356-2.906-1.681-0.719-0.2-2.281-0.237-3.031-0.069zM18.581 1.337c0.706 0.238 1.137 0.462 1.688 0.906 0.844 0.669 1.644 1.956 1.931 3.1 0.119 0.463 0.144 0.731 0.144 1.5-0.006 0.819-0.025 1.013-0.169 1.537-0.094 0.331-0.294 0.869-0.444 1.188l-0.269 0.588-0.106-0.656c-0.131-0.787-0.319-1.144-0.725-1.369-0.344-0.188-0.6-0.194-1.694-0.044-0.675 0.094-1.063 0.106-1.938 0.081-1.494-0.050-2.644-0.3-3.806-0.838-0.419-0.194-0.519-0.213-0.894-0.194-0.356 0.019-0.456 0.050-0.65 0.213-0.387 0.306-0.45 0.45-0.713 1.494-0.144 0.55-0.269 1.044-0.287 1.094-0.050 0.125-0.363-0.669-0.625-1.588-0.519-1.806-0.531-3.144-0.031-3.875 0.144-0.206 0.319-0.338 0.8-0.587 0.338-0.181 0.988-0.606 1.444-0.95 0.45-0.337 1.031-0.737 1.275-0.881 1.75-1.025 3.45-1.262 5.069-0.719zM13.125 8.463c0.669 0.275 1.412 0.494 2.219 0.637 0.831 0.156 3.206 0.162 4.094 0.012 0.756-0.125 0.756-0.125 0.9 0.762 0.119 0.744 0.225 0.969 0.556 1.181l0.231 0.15v0.856c0 1.469-0.256 2.45-0.887 3.419-0.3 0.463-1.181 1.394-1.319 1.394-0.038 0-0.15 0.069-0.256 0.15-0.288 0.219-0.631 0.375-1.225 0.575-0.475 0.156-0.625 0.175-1.375 0.175-1.006 0.006-1.344-0.075-2.306-0.544-0.563-0.269-0.725-0.387-1.225-0.881-0.669-0.662-1.094-1.306-1.363-2.088-0.181-0.519-0.194-0.606-0.219-1.769l-0.025-1.225 0.219-0.131c0.125-0.069 0.269-0.2 0.325-0.287 0.063-0.088 0.244-0.694 0.406-1.338 0.162-0.65 0.313-1.219 0.344-1.256 0.063-0.106 0.269-0.063 0.906 0.206zM12.438 18.1v0.4h-0.719c-0.394 0-0.719-0.025-0.719-0.050 0-0.081 0.375-0.413 0.775-0.694 0.344-0.238 0.369-0.244 0.512-0.15 0.131 0.081 0.15 0.144 0.15 0.494zM20.813 18.169l0.344 0.325-0.794 0.006h-0.8v-0.356c0-0.275 0.031-0.387 0.137-0.5l0.131-0.144 0.319 0.175c0.169 0.094 0.469 0.313 0.663 0.494zM14.544 18.694c1.081 0.281 2.5 0.212 3.5-0.169 0.225-0.081 0.425-0.15 0.438-0.15 0.019 0 0.019 0.319 0.006 0.7-0.019 0.6-0.044 0.756-0.188 1.069-0.35 0.744-1.119 1.337-1.931 1.488-0.35 0.063-0.481 0.056-0.881-0.031-0.831-0.188-1.419-0.663-1.781-1.456-0.15-0.313-0.175-0.456-0.194-1.094l-0.025-0.738 0.281 0.125c0.156 0.069 0.506 0.181 0.775 0.256zM12.519 19.95c0.3 1.294 1.225 2.269 2.519 2.65 0.494 0.144 1.431 0.144 1.931 0 1.275-0.375 2.262-1.431 2.538-2.731l0.069-0.306h2.113l0.044 0.169c0.031 0.1 0.050 1.394 0.050 2.887v2.706l-0.344 0.131c-0.481 0.175-1.056 0.756-1.25 1.262-0.2 0.512-0.2 1.231-0.006 1.738 0.2 0.506 0.706 1.038 1.206 1.269 0.337 0.156 0.469 0.181 0.956 0.181 0.5 0 0.606-0.019 0.981-0.2 0.525-0.244 0.887-0.606 1.131-1.131 0.181-0.375 0.2-0.481 0.2-0.981 0-0.488-0.025-0.619-0.181-0.956-0.231-0.494-0.769-1.012-1.238-1.188l-0.331-0.125-0.031-2.769c-0.019-1.525-0.025-2.788-0.019-2.8s0.262 0.056 0.563 0.15c1.906 0.594 3.381 1.844 4.269 3.625 0.506 1.019 0.688 1.7 0.731 2.788 0.031 0.675 0.012 0.95-0.069 1.331-0.281 1.238-1.163 2.356-2.319 2.913-0.95 0.462-0.331 0.438-9.969 0.438-9.725 0-9.1 0.025-10.125-0.475-0.487-0.244-0.681-0.387-1.094-0.8-0.556-0.569-0.838-0.994-1.081-1.675-0.156-0.431-0.169-0.519-0.169-1.519 0-0.962 0.019-1.119 0.175-1.681 0.55-1.975 1.894-3.637 3.681-4.544 0.475-0.238 1.188-0.5 1.6-0.587l0.2-0.044v2.119l-0.387 0.087c-1.031 0.212-2.1 1.050-2.569 2-0.375 0.769-0.425 1.144-0.406 3l0.019 1.606 0.194 0.244c0.319 0.387 0.537 0.481 1.138 0.488 0.475 0 0.531-0.012 0.644-0.15 0.169-0.206 0.156-0.575-0.025-0.744-0.1-0.094-0.237-0.137-0.513-0.15l-0.375-0.019-0.019-1.375c-0.006-0.819 0.013-1.506 0.050-1.7 0.3-1.425 1.769-2.45 3.175-2.206 1.137 0.194 2.094 1.1 2.325 2.206 0.037 0.194 0.056 0.881 0.050 1.7l-0.019 1.375-0.369 0.031c-0.281 0.025-0.387 0.069-0.481 0.181-0.162 0.2-0.15 0.462 0.031 0.675 0.144 0.163 0.181 0.175 0.613 0.169 0.537 0 0.769-0.106 1.075-0.481l0.194-0.244 0.019-1.606c0.019-1.856-0.031-2.231-0.406-3-0.469-0.956-1.537-1.788-2.575-2.006l-0.4-0.081 0.044-0.944c0.044-1.094 0.075-1.269 0.219-1.306 0.056-0.019 0.506-0.031 1.006-0.038l0.912-0.006 0.106 0.45zM22.938 26.5c0.369 0.188 0.688 0.694 0.688 1.087 0 0.656-0.631 1.288-1.288 1.288-0.075 0-0.225-0.031-0.344-0.069-1.038-0.35-1.212-1.719-0.288-2.269 0.337-0.206 0.869-0.225 1.231-0.038z"></path>
</symbol>

<symbol id="icon-orthopedic" viewBox="0 0 32 32">
<path d="M17.906 0.131c-1.144 0.363-2.481 0.556-4.094 0.6-1.125 0.031-1.381 0.056-1.569 0.15-0.256 0.131-0.431 0.438-0.431 0.762 0 0.231-0.094 0.294-0.456 0.294-0.269 0-0.606 0.181-0.738 0.4-0.144 0.237-0.15 0.594-0.025 1.438 0.119 0.775 0.181 0.931 0.425 1.137 0.181 0.156 0.225 0.162 0.738 0.138l0.544-0.025 0.037 0.237c0.025 0.15 0.119 0.331 0.25 0.475l0.213 0.231 1.119 0.019c1.244 0.025 2.156-0.050 3.363-0.269 0.881-0.162 2.063-0.481 2.35-0.625 0.238-0.125 0.369-0.394 0.369-0.775 0-0.569-0.113-0.9-0.413-1.256-0.313-0.369-0.35-0.6-0.156-0.988 0.175-0.363 0.2-0.544 0.131-1-0.094-0.556-0.169-0.738-0.387-0.919-0.15-0.131-0.25-0.156-0.538-0.15-0.194 0-0.525 0.056-0.731 0.125zM18.394 1.744c-0.113 0.219-0.144 0.381-0.144 0.75 0 0.544 0.106 0.825 0.462 1.244 0.369 0.444 0.356 0.463-0.694 0.719-0.969 0.237-1.363 0.313-2.313 0.419-0.569 0.063-2.256 0.094-2.306 0.044-0.019-0.013-0.056-0.194-0.088-0.394-0.044-0.281-0.1-0.406-0.231-0.519-0.175-0.15-0.325-0.156-1.15-0.025l-0.225 0.031-0.069-0.487c-0.037-0.269-0.056-0.5-0.044-0.519 0.012-0.013 0.269-0.056 0.569-0.1 0.706-0.106 0.813-0.2 0.794-0.712l-0.012-0.363 1.137-0.038c1.45-0.050 2.95-0.275 4.106-0.625l0.281-0.081 0.031 0.188c0.019 0.125-0.019 0.288-0.106 0.469z"></path>
<path d="M19.406 6.506c-1.144 0.362-2.481 0.556-4.094 0.6-1.125 0.031-1.381 0.056-1.569 0.15-0.256 0.131-0.431 0.438-0.431 0.762 0 0.231-0.094 0.294-0.456 0.294-0.269 0-0.606 0.181-0.738 0.4-0.144 0.238-0.15 0.594-0.025 1.438 0.119 0.775 0.181 0.931 0.425 1.137 0.181 0.156 0.225 0.162 0.744 0.137l0.544-0.025 0.044 0.244c0.025 0.15 0.119 0.338 0.244 0.475l0.206 0.225 1.119 0.019c1.244 0.025 2.156-0.050 3.363-0.269 0.881-0.162 2.063-0.481 2.35-0.625 0.3-0.156 0.394-0.419 0.35-1.006-0.044-0.6-0.15-0.887-0.45-1.219-0.262-0.294-0.288-0.556-0.087-0.95 0.119-0.225 0.131-0.325 0.1-0.775-0.038-0.556-0.137-0.813-0.394-1.013-0.212-0.169-0.719-0.169-1.244 0zM19.881 8c-0.094 0.219-0.131 0.438-0.131 0.762 0 0.512 0.119 0.831 0.425 1.181 0.106 0.119 0.206 0.319 0.231 0.438l0.044 0.225-0.931 0.225c-0.969 0.238-1.363 0.313-2.313 0.419-0.569 0.063-2.256 0.094-2.306 0.044-0.019-0.012-0.056-0.194-0.088-0.394-0.044-0.281-0.1-0.406-0.231-0.519-0.175-0.15-0.325-0.156-1.15-0.025l-0.225 0.031-0.069-0.488c-0.037-0.269-0.056-0.5-0.044-0.519 0.012-0.012 0.269-0.056 0.569-0.1 0.706-0.106 0.813-0.2 0.794-0.713l-0.012-0.363 1.137-0.037c1.413-0.044 2.969-0.281 4.106-0.625 0.262-0.075 0.281-0.075 0.3 0.037 0.012 0.063-0.038 0.256-0.106 0.419z"></path>
<path d="M14.544 13.375c-0.219 0.175-0.356 0.438-0.356 0.688v0.188h-0.444c-0.506 0-0.725 0.094-0.906 0.4-0.1 0.169-0.119 0.325-0.119 1.162 0 0.831 0.019 1 0.113 1.144 0.194 0.3 0.463 0.419 0.938 0.419h0.419v0.231c0 0.313 0.175 0.644 0.406 0.775 0.537 0.313 3.731 0.475 5.325 0.281 1.25-0.15 1.419-0.2 1.65-0.456 0.194-0.219 0.194-0.225 0.169-0.825-0.019-0.569-0.031-0.619-0.219-0.881-0.144-0.194-0.206-0.344-0.206-0.5 0-0.162 0.063-0.313 0.206-0.506 0.194-0.262 0.2-0.3 0.219-0.963 0.025-0.769-0.038-0.988-0.363-1.175-0.219-0.131-0.519-0.131-1.438-0.006-0.837 0.113-2.9 0.131-3.656 0.025-0.275-0.037-0.738-0.081-1.031-0.1-0.481-0.037-0.544-0.025-0.706 0.1zM16.188 14.444c1.119 0.125 3.837 0.056 4.394-0.106 0.188-0.056 0.137 0.356-0.094 0.731-0.169 0.262-0.206 0.4-0.225 0.75-0.038 0.581 0.019 0.806 0.269 1.188 0.119 0.175 0.219 0.356 0.219 0.4 0 0.1-0.887 0.225-1.956 0.275-0.938 0.044-2.3-0.006-3.025-0.119l-0.519-0.075v-0.369c0-0.681-0.15-0.806-0.969-0.806h-0.531v-0.988l0.6-0.025c0.569-0.025 0.613-0.037 0.75-0.2 0.113-0.131 0.15-0.244 0.15-0.481 0-0.313 0-0.319 0.175-0.281 0.094 0.019 0.438 0.069 0.763 0.106z"></path>
<path d="M13.912 19.756c-0.188 0.144-0.35 0.431-0.35 0.6 0 0.106-0.031 0.113-0.456 0.056-0.394-0.044-0.494-0.038-0.694 0.056-0.344 0.163-0.444 0.375-0.569 1.219-0.206 1.406-0.037 1.756 0.887 1.85l0.363 0.038-0.019 0.325c-0.037 0.631 0.206 0.819 1.512 1.156 1.531 0.4 2.85 0.569 4.462 0.569 1.125 0 1.288-0.031 1.525-0.294 0.256-0.281 0.325-1.231 0.119-1.631-0.2-0.387-0.175-0.65 0.087-0.944 0.306-0.337 0.413-0.625 0.45-1.262l0.038-0.55-0.488-0.488-1.188-0.044c-1.7-0.063-3.269-0.294-4.469-0.663-0.544-0.169-0.994-0.163-1.213 0.006zM16.594 21.188c0.819 0.144 1.637 0.231 2.769 0.288l0.837 0.038-0.044 0.163c-0.019 0.087-0.125 0.262-0.231 0.381-0.313 0.356-0.425 0.669-0.425 1.194 0 0.331 0.038 0.55 0.125 0.744 0.069 0.15 0.125 0.337 0.125 0.419v0.15h-0.894c-1.344 0-3-0.238-4.269-0.619l-0.444-0.131 0.056-0.369c0.1-0.663-0.063-0.813-1-0.913l-0.4-0.044 0.037-0.2c0.019-0.106 0.050-0.337 0.075-0.512l0.037-0.313 0.563 0.081c0.481 0.069 0.581 0.069 0.731-0.012 0.188-0.094 0.319-0.369 0.319-0.656v-0.169l0.675 0.181c0.369 0.094 0.981 0.231 1.356 0.3z"></path>
<path d="M12.412 26.131c-0.188 0.144-0.35 0.431-0.35 0.6 0 0.106-0.031 0.113-0.456 0.056-0.394-0.044-0.494-0.038-0.694 0.056-0.344 0.163-0.444 0.375-0.569 1.219-0.206 1.406-0.037 1.756 0.887 1.85l0.363 0.038-0.019 0.325c-0.019 0.369 0.125 0.663 0.406 0.806 0.381 0.2 1.881 0.569 3.119 0.769 0.819 0.131 3.294 0.194 3.606 0.094 0.375-0.125 0.512-0.35 0.606-0.994 0.075-0.556 0.075-0.563-0.087-0.919-0.238-0.519-0.219-0.706 0.113-1.094 0.306-0.363 0.413-0.688 0.413-1.294 0-0.319-0.019-0.363-0.231-0.581l-0.238-0.231-1.188-0.044c-1.7-0.063-3.269-0.294-4.469-0.663-0.544-0.169-0.994-0.163-1.213 0.006zM15.094 27.563c0.819 0.144 1.637 0.231 2.769 0.288 0.488 0.025 0.825 0.063 0.825 0.1s-0.1 0.181-0.225 0.313c-0.344 0.381-0.462 0.694-0.462 1.244 0 0.375 0.031 0.531 0.144 0.762 0.094 0.181 0.137 0.356 0.119 0.475l-0.025 0.194h-0.856c-1.35 0-3.156-0.262-4.344-0.625l-0.394-0.125 0.056-0.369c0.1-0.663-0.063-0.813-1-0.913l-0.4-0.044 0.037-0.2c0.019-0.106 0.050-0.337 0.075-0.512l0.037-0.313 0.563 0.081c0.481 0.069 0.581 0.069 0.731-0.012 0.188-0.094 0.319-0.369 0.319-0.656v-0.169l0.675 0.181c0.369 0.094 0.981 0.231 1.356 0.3z"></path>
</symbol>

<symbol id="icon-medical-symbol" viewBox="0 0 32 32">
<path d="M15.050 0.119c-1.231 0.406-2.113 1.619-2.113 2.913 0 1.3 0.894 2.513 2.125 2.881l0.375 0.112v11.838l-0.512 0.038c-1.975 0.131-2.444 0.1-3.106-0.225-0.519-0.25-1.113-0.844-1.35-1.337-0.394-0.819-0.188-1.656 0.619-2.506 0.356-0.381 0.412-0.475 0.412-0.669 0-0.431-0.4-0.656-0.8-0.45-0.262 0.137-0.794 0.719-1.044 1.131-0.363 0.613-0.488 1.119-0.456 1.85 0.031 0.575 0.050 0.662 0.3 1.169 0.519 1.050 1.569 1.875 2.688 2.113 0.387 0.081 0.713 0.094 1.863 0.063l1.387-0.044v4.175l-0.838 0.038c-1.256 0.063-1.731-0.075-2.238-0.631-0.588-0.65-0.537-1.306 0.144-2.012 0.262-0.269 0.306-0.35 0.306-0.563 0-0.281-0.144-0.469-0.412-0.538-0.363-0.094-0.95 0.438-1.3 1.163-0.175 0.369-0.194 0.462-0.194 1.031 0 0.581 0.012 0.656 0.2 1.038 0.225 0.45 0.738 0.988 1.206 1.262 0.525 0.306 0.975 0.375 2.112 0.337l1.012-0.031v3.531l-0.325 0.044c-0.831 0.094-1.325-0.019-1.606-0.369-0.281-0.363-0.25-0.631 0.119-1.063 0.306-0.35 0.338-0.637 0.094-0.875-0.25-0.256-0.537-0.212-0.9 0.125-0.825 0.775-0.8 1.969 0.063 2.744 0.475 0.425 0.838 0.538 1.775 0.538h0.781v1.231c0 1.669 0.056 1.831 0.619 1.831 0.194 0 0.275-0.038 0.375-0.163 0.125-0.156 0.131-0.244 0.131-1.438v-1.275l0.363 0.156c0.406 0.181 0.637 0.406 0.637 0.625 0 0.087-0.075 0.306-0.163 0.488-0.262 0.531-0.087 0.919 0.413 0.919 0.306 0 0.456-0.131 0.656-0.587 0.212-0.469 0.25-0.831 0.125-1.256-0.175-0.619-0.675-1.031-1.606-1.344l-0.425-0.144v-3.556l0.206 0.044c0.344 0.075 1.25 0.438 1.525 0.613 0.675 0.431 0.781 0.944 0.369 1.75-0.269 0.512-0.269 0.688-0.025 0.919 0.113 0.1 0.206 0.125 0.425 0.113 0.256-0.019 0.294-0.044 0.475-0.319 0.494-0.756 0.6-1.788 0.256-2.456-0.212-0.413-0.725-0.881-1.262-1.144-0.469-0.225-1.65-0.631-1.85-0.631-0.113 0-0.119-0.063-0.119-2.119v-2.119l0.394 0.087c0.631 0.15 1.663 0.512 2.231 0.788 1 0.481 1.519 1.212 1.406 1.975-0.056 0.363-0.238 0.831-0.475 1.219-0.225 0.369-0.231 0.625-0.025 0.825 0.194 0.2 0.6 0.212 0.781 0.031 0.188-0.188 0.619-1.081 0.725-1.519 0.137-0.519 0.094-1.325-0.1-1.825-0.219-0.575-0.962-1.281-1.75-1.675-0.675-0.331-2.131-0.825-2.762-0.931l-0.425-0.075v-11.963l0.212-0.037c0.625-0.119 1.538-0.787 1.887-1.381 0.913-1.556 0.294-3.569-1.331-4.325-0.456-0.212-0.531-0.231-1.206-0.25-0.575-0.013-0.787 0.006-1.075 0.1zM16.956 1.331c1.212 0.662 1.387 2.2 0.356 3.125-0.975 0.875-2.481 0.581-3.063-0.606-0.525-1.063 0.037-2.319 1.206-2.7 0.438-0.144 1.044-0.069 1.5 0.181z"></path>
<path d="M10.719 5.381c-0.956 0.144-1.856 0.569-3.781 1.781-1.494 0.938-2.494 1.45-3.281 1.688-0.487 0.15-0.681 0.175-1.462 0.181-0.9 0.006-0.9 0.006-1.044 0.181-0.081 0.094-0.15 0.25-0.15 0.344 0 0.2 0.356 0.819 0.644 1.119 0.306 0.313 0.9 0.581 1.381 0.619 0.231 0.019 0.413 0.037 0.413 0.044s-0.056 0.119-0.125 0.256c-0.237 0.469-0.119 0.725 0.419 0.881 0.594 0.175 1.331 0.088 2.163-0.256 0.1-0.044 0.106-0.019 0.069 0.213-0.031 0.188-0.013 0.294 0.063 0.412 0.181 0.269 0.431 0.35 1.088 0.356 0.688 0 1.019-0.069 2.425-0.506 1.438-0.444 1.9-0.525 2.738-0.494 0.519 0.025 0.819 0.075 1.194 0.2 0.619 0.2 0.662 0.2 0.9 0l0.194-0.162v-5.325l-0.325-0.306c-1.044-0.963-2.319-1.413-3.519-1.225zM11.875 6.506c0.406 0.094 0.981 0.394 1.331 0.688l0.294 0.256v1.906c0 1.656-0.012 1.9-0.094 1.869-0.050-0.019-0.338-0.063-0.637-0.106-0.988-0.131-1.988 0.019-3.706 0.563-1.006 0.319-1.675 0.481-1.731 0.419-0.019-0.019 0-0.119 0.037-0.231 0.219-0.631-0.094-1.3-0.612-1.306-0.081 0-0.388 0.137-0.688 0.3-0.55 0.306-1.144 0.581-1.181 0.544-0.013-0.012 0.081-0.15 0.2-0.313 0.287-0.369 0.294-0.594 0.037-0.856-0.156-0.156-0.231-0.181-0.394-0.156-1.006 0.156-1.356 0.188-1.612 0.131l-0.275-0.063 0.438-0.081c1.131-0.2 2.275-0.731 4.306-2 2.313-1.45 3.275-1.8 4.287-1.563z"></path>
<path d="M20.156 5.412c-0.694 0.106-1.413 0.444-2.075 0.975-0.706 0.556-0.644 0.244-0.644 3.269v2.637l0.144 0.125c0.231 0.219 0.381 0.225 0.931 0.044 0.406-0.131 0.681-0.175 1.275-0.2 0.913-0.031 1.319 0.037 2.95 0.525 1.381 0.406 2.087 0.519 2.65 0.412 0.531-0.094 0.706-0.287 0.65-0.7l-0.038-0.287 0.544 0.181c0.625 0.213 1.288 0.256 1.788 0.113 0.481-0.137 0.587-0.394 0.356-0.85-0.069-0.137-0.125-0.25-0.125-0.256 0 0 0.188-0.025 0.413-0.044 0.769-0.075 1.413-0.506 1.831-1.238 0.231-0.406 0.244-0.619 0.044-0.85l-0.15-0.169-0.894-0.012c-0.781-0.006-0.975-0.031-1.462-0.175-0.8-0.238-1.863-0.781-3.375-1.731-1.462-0.912-2.456-1.425-3.156-1.619-0.469-0.125-1.306-0.2-1.656-0.15zM21.688 6.688c0.644 0.225 1.306 0.581 2.719 1.456 2.063 1.287 3.113 1.769 4.319 1.988l0.431 0.081-0.331 0.063c-0.25 0.044-0.5 0.031-1.006-0.050-0.731-0.119-0.85-0.1-1.031 0.162-0.156 0.219-0.119 0.45 0.113 0.762l0.219 0.281-0.231-0.081c-0.131-0.050-0.519-0.231-0.869-0.406-0.669-0.331-0.9-0.381-1.125-0.225-0.288 0.2-0.406 0.881-0.238 1.306 0.044 0.106 0.025 0.113-0.225 0.069-0.15-0.025-0.781-0.194-1.4-0.381-1.369-0.4-1.938-0.519-2.725-0.569-0.531-0.031-1.456 0.050-1.719 0.15-0.075 0.025-0.087-0.269-0.087-1.887 0-2.194-0.069-1.925 0.65-2.412 0.769-0.513 1.637-0.612 2.538-0.306z"></path>
<path d="M20.563 12.969c-0.294 0.319-0.163 0.725 0.313 0.969 0.3 0.156 0.663 0.519 0.825 0.831 0.188 0.356 0.194 1.031 0.019 1.387-0.169 0.35-0.606 0.769-0.956 0.919-0.431 0.188-0.512 0.281-0.512 0.581 0 0.575 0.413 0.719 1.094 0.375 1.75-0.881 2.156-3.125 0.825-4.494-0.65-0.662-1.3-0.894-1.606-0.569z"></path>
<path d="M13.744 29.269c-0.394 0.212-0.65 0.644-0.65 1.1 0 0.694 0.463 1.194 1.144 1.244 0.325 0.025 0.381 0.006 0.563-0.144 0.156-0.131 0.2-0.219 0.2-0.381 0-0.275-0.231-0.525-0.488-0.525-0.238 0-0.375-0.15-0.262-0.281 0.044-0.050 0.125-0.094 0.181-0.094 0.194 0 0.381-0.269 0.381-0.544 0-0.494-0.506-0.669-1.069-0.375z"></path>
</symbol>

<symbol id="icon-services" viewBox="0 0 32 32">
<path d="M20.906 0.156c-1.6 0.35-2.969 1.594-3.506 3.188-0.137 0.413-0.175 0.644-0.2 1.313-0.031 0.925 0.081 1.537 0.425 2.269l0.188 0.4-0.313 0.656c-0.175 0.362-0.313 0.744-0.313 0.844 0 0.338 0.181 0.619 0.488 0.75 0.331 0.15 0.469 0.119 1.3-0.262l0.569-0.269 0.337 0.156c0.981 0.456 1.894 0.581 2.956 0.394 2.938-0.512 4.681-3.537 3.681-6.375-0.531-1.5-1.788-2.638-3.356-3.031-0.581-0.15-1.663-0.163-2.256-0.031zM23.25 1.269c0.569 0.2 1.219 0.637 1.6 1.069 0.556 0.631 0.962 1.7 0.962 2.537 0 1.588-1.131 3.112-2.65 3.6-1.038 0.325-1.925 0.25-2.956-0.256-0.313-0.156-0.6-0.281-0.631-0.281-0.038 0-0.306 0.113-0.6 0.25-0.294 0.131-0.538 0.231-0.538 0.219s0.1-0.225 0.219-0.475c0.119-0.256 0.219-0.537 0.219-0.625 0-0.094-0.113-0.394-0.25-0.662-0.325-0.631-0.438-1.1-0.438-1.787 0-1.069 0.344-1.894 1.131-2.681 0.369-0.375 0.587-0.538 0.962-0.719 0.688-0.325 1.012-0.394 1.813-0.375 0.556 0.019 0.775 0.050 1.156 0.188z"></path>
<path d="M19.85 4.506c-0.125 0.1-0.163 0.181-0.163 0.375 0 0.313 0.169 0.494 0.462 0.494 0.481 0 0.694-0.537 0.325-0.85-0.206-0.181-0.406-0.188-0.625-0.019z"></path>
<path d="M21.712 4.444c-0.294 0.15-0.35 0.544-0.119 0.775 0.313 0.319 0.844 0.112 0.844-0.325 0-0.369-0.4-0.612-0.725-0.45z"></path>
<path d="M23.519 4.438c-0.294 0.119-0.363 0.575-0.125 0.8 0.2 0.188 0.506 0.181 0.7-0.019 0.244-0.237 0.169-0.638-0.137-0.775-0.175-0.081-0.25-0.081-0.438-0.006z"></path>
<path d="M6.188 4.35c-1.275 0.331-2.263 1.306-2.669 2.619-0.1 0.338-0.112 0.625-0.112 2.875 0 2.231 0.013 2.544 0.112 2.9 0.163 0.581 0.419 1.106 0.756 1.55l0.287 0.394h-0.494c-1.256 0-2.231 0.694-2.631 1.869-0.119 0.356-0.125 0.525-0.125 3.381v3h-0.219c-0.306 0-0.675 0.2-0.887 0.481l-0.175 0.225-0.019 1.663c-0.013 0.913 0 1.725 0.019 1.8 0.044 0.188 0.381 0.563 0.619 0.694 0.181 0.1 0.725 0.106 6.9 0.125 4.419 0.012 6.787-0.006 6.944-0.050 0.369-0.1 0.494-0.469 0.25-0.775l-0.125-0.163h-6.719c-6.631 0-6.713 0-6.838-0.125-0.119-0.119-0.125-0.206-0.125-1.337 0-0.669 0.025-1.288 0.063-1.375l0.063-0.163h15.681l-0.219 0.356c-0.406 0.675-0.406 0.681-0.387 3.938l0.019 2.931 0.169 0.256c0.1 0.15 0.275 0.306 0.438 0.387l0.275 0.131h14.050l0.275-0.131c0.181-0.094 0.337-0.231 0.456-0.419l0.181-0.288v-2.956c0-2.938 0-2.95-0.144-3.35-0.275-0.756-0.744-1.25-1.525-1.625l-0.425-0.2-4.1-0.038 0.038-0.75 0.313-0.106c0.631-0.212 1.175-0.637 1.512-1.163 0.194-0.3 0.394-0.869 0.394-1.113 0-0.175 0-0.175 0.394-0.175 1.125 0 1.794-1.156 1.262-2.188-0.113-0.212-0.45-0.512-0.7-0.619l-0.188-0.075 0.131-0.262c0.119-0.244 0.131-0.369 0.131-1.544 0-1.194-0.006-1.3-0.137-1.537-0.325-0.606-0.9-0.9-1.775-0.9h-0.488l-0.3-0.3c-0.375-0.369-0.794-0.569-1.356-0.65-0.244-0.031-1.356-0.050-2.475-0.037l-2.031 0.019-0.35 0.162c-0.425 0.2-0.75 0.512-0.981 0.95l-0.169 0.325v1.625c0 1.569 0.006 1.631 0.144 1.894l0.144 0.262-0.175 0.069c-0.094 0.038-0.262 0.131-0.369 0.212-0.181 0.137-0.206 0.144-0.281 0.050-0.194-0.231-0.563-0.331-1.25-0.331h-0.663l-0.075-0.244c-0.119-0.406-0.563-1-0.963-1.294-0.475-0.356-1.025-0.525-1.681-0.525h-0.5l0.231-0.269c0.331-0.381 0.762-1.306 0.875-1.869 0.131-0.681 0.137-4.75 0-5.394-0.225-1.075-0.988-2.050-1.975-2.519-0.713-0.344-0.994-0.388-2.4-0.388-1.137 0-1.225 0.006-1.344 0.125-0.162 0.162-0.162 0.5-0.006 0.694 0.119 0.15 0.144 0.15 1.456 0.181l1.331 0.031 0.438 0.213c0.769 0.375 1.35 1.112 1.525 1.931 0.094 0.438 0.094 4.356 0 4.863-0.144 0.813-0.781 1.756-1.488 2.206-0.269 0.175-0.344 0.194-0.806 0.194h-0.512v-0.725l0.287-0.075c0.894-0.238 1.644-1.081 1.838-2.050 0.044-0.231 0.063-0.794 0.050-1.469-0.019-1.088-0.019-1.094-0.225-1.506-0.325-0.656-0.563-0.825-2.094-1.475-0.731-0.306-1.387-0.581-1.463-0.6-0.175-0.056-2.725 1-3.138 1.3-0.313 0.219-0.656 0.681-0.763 1.025-0.044 0.125-0.088 0.706-0.1 1.294-0.044 1.537 0.106 2.081 0.75 2.762 0.313 0.331 1.056 0.769 1.3 0.769 0.1 0 0.119 0.050 0.119 0.375v0.375h-0.506c-0.475 0-0.525-0.012-0.844-0.225-0.45-0.3-0.831-0.738-1.1-1.256-0.388-0.75-0.394-0.813-0.394-3.363 0-2.019 0.013-2.356 0.106-2.662 0.162-0.513 0.569-1.088 1.006-1.406 0.369-0.275 1.019-0.525 1.356-0.525 0.281 0 0.525-0.25 0.525-0.531 0-0.45-0.419-0.575-1.212-0.369zM10.25 8.356c1.619 0.688 1.644 0.731 1.613 2.35-0.019 0.956-0.031 1.1-0.156 1.325-0.294 0.55-0.912 0.969-1.444 0.969-0.2 0-0.306 0.037-0.419 0.156-0.15 0.144-0.156 0.194-0.156 0.844v0.688h-1.438v-0.706c0-0.85-0.037-0.912-0.625-0.994-0.475-0.063-0.787-0.219-1.081-0.544-0.412-0.456-0.444-0.594-0.45-1.819 0-1.044 0.006-1.106 0.15-1.363 0.088-0.144 0.225-0.313 0.313-0.369s0.669-0.325 1.281-0.588c0.944-0.406 1.15-0.475 1.281-0.425 0.088 0.037 0.594 0.25 1.131 0.475zM25.387 12.7c0.156 0.094 0.35 0.269 0.419 0.387 0.225 0.363 0.275 0.381 1.144 0.412l0.813 0.031 0.181 0.206 0.181 0.2v0.988c0 0.844-0.019 1.006-0.119 1.169-0.137 0.231-1.931 1.756-2.25 1.919-0.194 0.1-0.394 0.113-1.694 0.113-1.006-0.006-1.525-0.031-1.637-0.081-0.094-0.044-0.637-0.462-1.206-0.944-0.719-0.594-1.069-0.931-1.131-1.075-0.125-0.294-0.125-2.563 0-2.863 0.106-0.262 0.387-0.525 0.631-0.6 0.106-0.031 1.131-0.050 2.281-0.044l2.094 0.012 0.294 0.169zM5.075 16.606c0.037 1.319-0.088 1.144 2.256 3.2l1.169 1.031v2.1h-3.313v-1.431c0-1.35-0.006-1.438-0.131-1.594-0.169-0.212-0.55-0.231-0.744-0.025-0.119 0.131-0.125 0.212-0.125 1.594v1.456h-1.881l0.019-3.019c0.019-2.956 0.019-3.019 0.156-3.262 0.181-0.337 0.55-0.681 0.894-0.838 0.225-0.106 0.413-0.131 0.975-0.131h0.7l0.025 0.919zM7.8 17.125c0.212 0.775 0.444 1.594 0.506 1.831 0.081 0.275 0.094 0.406 0.050 0.375-0.244-0.144-2.188-1.938-2.237-2.063-0.031-0.081-0.056-0.475-0.056-0.869v-0.719l1.344 0.037 0.394 1.406zM9.481 15.762c-0.012 0.044-0.137 0.456-0.269 0.919s-0.244 0.813-0.25 0.781c-0.012-0.031-0.131-0.444-0.262-0.919l-0.25-0.856h0.531c0.4 0 0.525 0.019 0.5 0.075zM11.875 16.2v0.519l-0.325 0.156c-0.45 0.212-0.688 0.569-0.725 1.050l-0.025 0.369-1.294 1.144 0.088-0.294c0.050-0.169 0.275-0.975 0.5-1.8s0.425-1.537 0.438-1.581c0.019-0.050 0.213-0.075 0.688-0.075h0.656v0.512zM14.444 15.762c0.325 0.106 0.7 0.387 0.887 0.656 0.094 0.137 0.169 0.262 0.169 0.288s-0.588 0.044-1.313 0.044h-1.313v-1.063h0.681c0.369 0 0.769 0.031 0.887 0.075zM20.063 18.156v0.469h-0.281c-0.325 0-0.531-0.156-0.531-0.413 0-0.337 0.206-0.512 0.613-0.519l0.2-0.006v0.469zM28.625 17.769c0.219 0.113 0.313 0.331 0.238 0.55-0.075 0.225-0.219 0.306-0.512 0.306h-0.225v-0.938h0.175c0.094 0 0.238 0.038 0.325 0.081zM17.8 17.825c0.056 0.056 0.075 0.719 0.075 2.594v2.519h-6.063v-2.519c0-1.875 0.019-2.538 0.075-2.594 0.106-0.106 5.806-0.106 5.912 0zM22.219 19.038c0.288 0.081 0.625 0.094 2.019 0.075 1.881-0.025 1.875-0.025 2.475-0.519 0.194-0.156 0.369-0.281 0.387-0.281 0.025 0 0.031 0.331 0.012 0.738-0.025 0.575-0.063 0.8-0.169 1.044-0.256 0.587-0.788 1-1.363 1.069-0.431 0.050-0.644 0.15-0.712 0.319-0.031 0.081-0.056 0.444-0.056 0.806v0.65h-1.5v-0.712c0-0.881-0.044-0.956-0.594-1.031-0.688-0.1-1.131-0.381-1.456-0.938-0.156-0.269-0.169-0.35-0.194-1.125l-0.019-0.831 0.413 0.319c0.256 0.194 0.55 0.356 0.756 0.419zM19.125 19.531c0.087 0.050 0.325 0.087 0.538 0.094h0.381l0.044 0.306c0.063 0.469 0.419 1.125 0.819 1.5 0.35 0.331 1.012 0.694 1.269 0.694 0.131 0 0.137 0.025 0.137 0.406v0.406h-3.438v-1.75c0-0.962 0.019-1.75 0.050-1.75 0.025 0.006 0.113 0.044 0.2 0.094zM10.813 21.313v1.625h-1.313v-1.081l0.006-1.075 0.625-0.55c0.344-0.3 0.637-0.544 0.656-0.544 0.012 0 0.025 0.731 0.025 1.625zM30.050 24.156c0.4 0.219 0.6 0.444 0.819 0.906l0.163 0.344 0.019 2.594c0.012 1.7 0 2.656-0.044 2.769l-0.069 0.169h-1.938v-1.25c0-1.169-0.006-1.256-0.125-1.375-0.131-0.131-0.431-0.163-0.625-0.063-0.2 0.106-0.25 0.419-0.25 1.569v1.119h-7.869l-0.019-1.256c-0.019-1.231-0.019-1.256-0.169-1.375-0.194-0.156-0.494-0.15-0.675 0.019-0.144 0.131-0.144 0.156-0.144 1.375v1.238h-0.931c-0.719 0-0.944-0.019-1-0.087-0.056-0.063-0.069-0.825-0.056-2.863 0.019-2.75 0.019-2.769 0.163-3.038 0.206-0.381 0.594-0.738 0.969-0.881 0.319-0.125 0.456-0.125 5.887-0.113l5.563 0.012 0.331 0.188z"></path>
<path d="M8.625 9.063c-0.1 0.1-0.125 0.206-0.125 0.556 0 0.394 0.012 0.444 0.162 0.563 0.281 0.219 0.65 0.125 0.781-0.188 0.1-0.244 0.044-0.775-0.1-0.931-0.156-0.169-0.55-0.169-0.719 0z"></path>
<path d="M8.194 10.963c-0.162 0.169-0.169 0.475-0.019 0.662 0.194 0.238 0.919 0.3 1.4 0.113 0.319-0.119 0.375-0.65 0.088-0.825-0.081-0.056-0.344-0.088-0.731-0.088-0.55-0.006-0.619 0.006-0.738 0.137z"></path>
<path d="M14.5 18.938c-0.1 0.1-0.125 0.206-0.125 0.531v0.406h-0.406c-0.481 0-0.656 0.119-0.656 0.462 0 0.356 0.169 0.494 0.65 0.525l0.412 0.025v0.363c0 0.462 0.131 0.65 0.469 0.65 0.344 0 0.531-0.238 0.531-0.675v-0.337l0.387-0.025c0.319-0.025 0.406-0.056 0.531-0.2 0.175-0.212 0.181-0.406 0.012-0.625-0.113-0.144-0.169-0.163-0.531-0.163h-0.4v-0.369c0-0.488-0.15-0.694-0.506-0.694-0.162 0-0.287 0.044-0.369 0.125z"></path>
</symbol>

<symbol id="icon-contacts" viewBox="0 0 32 32">
<path d="M6.644 2.619c-0.65 0.237-1.125 0.669-1.444 1.319l-0.169 0.344v23.438l0.181 0.375c0.237 0.481 0.713 0.956 1.194 1.194l0.375 0.181h12.438l0.375-0.181c0.481-0.238 0.956-0.712 1.194-1.194l0.181-0.375 0.019-2.231c0.019-2.175 0.012-2.238-0.113-2.363-0.15-0.15-0.538-0.169-0.725-0.038-0.113 0.087-0.119 0.2-0.15 2.144-0.038 2.319-0.050 2.394-0.544 2.837-0.462 0.419-0.15 0.4-6.456 0.4-5.362 0-5.737-0.006-6.013-0.113-0.344-0.131-0.75-0.544-0.869-0.894-0.075-0.206-0.088-2.075-0.088-11.463 0-12.35-0.031-11.481 0.4-11.956 0.381-0.425 0.638-0.5 1.756-0.531l0.969-0.025 0.469 0.95c0.256 0.519 0.519 0.975 0.575 1.006s1.3 0.056 2.8 0.056c1.5 0 2.744-0.025 2.8-0.056s0.319-0.487 0.575-1.006l0.469-0.95 0.969 0.025c1.075 0.031 1.313 0.094 1.681 0.444 0.431 0.406 0.469 0.581 0.506 2.313 0.031 1.444 0.038 1.563 0.15 1.644 0.188 0.131 0.575 0.113 0.731-0.044 0.125-0.125 0.125-0.181 0.106-1.856l-0.019-1.731-0.181-0.375c-0.238-0.481-0.712-0.956-1.194-1.194l-0.375-0.181-6.125-0.013c-5.85-0.013-6.138-0.013-6.45 0.1zM15.625 3.531c0 0.013-0.106 0.237-0.231 0.5l-0.231 0.469h-4.325l-0.231-0.469c-0.125-0.263-0.231-0.487-0.231-0.5 0-0.019 1.181-0.031 2.625-0.031s2.625 0.013 2.625 0.031z"></path>
<path d="M19.438 8.544c-2.956 0.488-5.206 2.637-5.819 5.55-0.15 0.713-0.156 1.994-0.019 2.719 0.1 0.531 0.394 1.425 0.6 1.837l0.125 0.238-0.662 1.45c-0.456 1-0.662 1.525-0.662 1.681 0 0.306 0.175 0.481 0.481 0.481 0.131 0 1-0.194 1.925-0.425l1.688-0.419 0.344 0.169c0.506 0.256 1.4 0.531 1.988 0.613 0.738 0.113 2.156 0.050 2.775-0.113 1.9-0.512 3.369-1.606 4.363-3.256 1.044-1.75 1.238-4.063 0.5-6.081-0.8-2.2-2.788-3.875-5.156-4.369-0.531-0.113-1.994-0.156-2.469-0.075zM21.938 9.725c1.294 0.325 2.481 1.106 3.3 2.169 1.75 2.262 1.581 5.569-0.387 7.656-0.531 0.563-0.938 0.869-1.6 1.225-1.656 0.875-3.631 0.9-5.356 0.069-0.319-0.156-0.631-0.281-0.706-0.281-0.069 0-0.694 0.144-1.387 0.313-0.688 0.175-1.269 0.306-1.281 0.288-0.019-0.019 0.181-0.5 0.444-1.075s0.475-1.125 0.475-1.225c0-0.1-0.113-0.4-0.25-0.675-0.963-1.906-0.831-4.137 0.35-5.981 0.281-0.444 1.037-1.225 1.494-1.55 1.438-1.019 3.206-1.356 4.906-0.931z"></path>
<path d="M19.125 12.125c-0.119 0.119-0.125 0.206-0.125 1.25v1.125h-1.125c-1.494 0-1.375-0.125-1.375 1.5s-0.119 1.5 1.375 1.5h1.125v1.125c0 1.494-0.125 1.375 1.5 1.375s1.5 0.119 1.5-1.375v-1.125h1.125c1.494 0 1.375 0.125 1.375-1.5s0.119-1.5-1.375-1.5h-1.125v-1.125c0-1.494 0.125-1.375-1.5-1.375-1.169 0-1.256 0.006-1.375 0.125zM21 14.125c0 1.044 0.006 1.131 0.125 1.25s0.206 0.125 1.25 0.125h1.125v1h-1.125c-1.044 0-1.131 0.006-1.25 0.125s-0.125 0.206-0.125 1.25v1.125h-1v-1.125c0-1.044-0.006-1.131-0.125-1.25s-0.206-0.125-1.25-0.125h-1.125v-1h1.125c1.044 0 1.131-0.006 1.25-0.125s0.125-0.206 0.125-1.25v-1.125h1v1.125z"></path>
<path d="M11.125 26.625c-0.081 0.081-0.125 0.206-0.125 0.375s0.044 0.294 0.125 0.375c0.119 0.119 0.206 0.125 1.875 0.125s1.756-0.006 1.875-0.125c0.081-0.081 0.125-0.206 0.125-0.375s-0.044-0.294-0.125-0.375c-0.119-0.119-0.206-0.125-1.875-0.125s-1.756 0.006-1.875 0.125z"></path>
</symbol>

<symbol id="icon-price" viewBox="0 0 32 32">
<path d="M4.094 0.094c-1.025 0.281-1.831 0.944-2.306 1.887-0.369 0.744-0.35 0.075-0.35 11.8 0 11.931-0.031 11.069 0.419 11.925 0.456 0.863 1.425 1.594 2.381 1.788 0.219 0.044 1.819 0.069 4.794 0.069h4.463l0.075 0.144c0.037 0.075 0.225 0.344 0.412 0.6 1.338 1.794 3.3 3.050 5.519 3.538 0.637 0.137 2.425 0.194 3.119 0.1 3.413-0.488 6.256-2.788 7.413-6.006 0.356-0.994 0.531-1.988 0.531-3.106 0-1.863-0.538-3.625-1.569-5.156-0.481-0.712-1.7-1.95-2.387-2.412-0.856-0.588-2.025-1.113-3.087-1.387l-0.269-0.069v-6.3l-0.512-0.55c-2.069-2.206-6.563-6.888-6.644-6.919-0.056-0.019-2.713-0.037-5.894-0.031-4.688 0-5.856 0.019-6.106 0.087zM15.075 3.731c0.031 2.581 0.037 2.656 0.444 3.344 0.381 0.656 1.194 1.212 1.975 1.362 0.181 0.031 1.244 0.063 2.356 0.063h2.025v5.106l-0.794 0.037c-0.962 0.044-1.688 0.169-2.506 0.425-1.063 0.344-2.244 0.975-3.019 1.625l-0.294 0.244h-8.688l-0.194 0.163c-0.237 0.194-0.3 0.488-0.175 0.794 0.181 0.431 0.056 0.419 4.131 0.419h3.662l-0.363 0.55c-0.194 0.3-0.45 0.75-0.569 1l-0.219 0.45h-3.050c-3.431 0-3.412 0-3.588 0.413-0.131 0.313-0.069 0.6 0.169 0.8l0.194 0.163h2.9c2.281 0 2.9 0.019 2.9 0.075 0 0.044-0.044 0.331-0.094 0.644-0.225 1.369-0.044 3.319 0.412 4.475l0.119 0.313-8.281-0.038-0.362-0.169c-0.45-0.212-0.7-0.419-0.962-0.788-0.419-0.581-0.394 0.15-0.394-11.431 0-11.594-0.025-10.8 0.406-11.425 0.212-0.313 0.487-0.563 0.781-0.719 0.444-0.238 0.519-0.244 5.856-0.244l5.194-0.006 0.025 2.356zM19.038 5.125l1.869 1.969-0.281 0.019c-0.156 0.013-0.869 0.013-1.594 0-1.094-0.019-1.356-0.044-1.581-0.138-0.325-0.138-0.8-0.656-0.887-0.963-0.031-0.131-0.063-0.956-0.063-1.888v-1.656l0.337 0.344c0.181 0.188 1.175 1.231 2.2 2.313zM22.706 15.162c2.381 0.412 4.488 1.969 5.588 4.125 0.356 0.688 0.65 1.569 0.775 2.275 0.1 0.587 0.106 1.894 0.006 2.475-0.631 3.8-3.887 6.587-7.7 6.587-3.394 0-6.381-2.2-7.438-5.469-0.881-2.756-0.1-5.837 2.006-7.887 0.662-0.644 1.231-1.044 2.088-1.475 0.469-0.231 1.381-0.531 1.938-0.631 0.681-0.119 2.050-0.125 2.738 0z"></path>
<path d="M6.506 12.669c-0.581 0.287-0.425 1.181 0.231 1.294 0.406 0.063 6.775 0.044 7.025-0.025 0.5-0.144 0.662-0.744 0.306-1.137l-0.181-0.206-3.588-0.012c-3.25-0.019-3.6-0.006-3.794 0.088z"></path>
<path d="M21.025 16.369c-0.256 0.113-0.4 0.375-0.4 0.731v0.325l-0.313 0.106c-0.744 0.244-1.469 0.95-1.794 1.738-0.238 0.556-0.275 1.431-0.087 2.031 0.238 0.788 0.813 1.475 1.538 1.844 0.406 0.206 0.744 0.294 1.375 0.356 0.794 0.081 1.25 0.387 1.531 1.012 0.325 0.738 0.063 1.575-0.644 2.056-0.269 0.181-0.369 0.212-0.756 0.231-0.563 0.031-0.994-0.131-1.325-0.5-0.275-0.306-0.4-0.587-0.469-1.081-0.069-0.488-0.294-0.719-0.706-0.719-0.225 0-0.313 0.038-0.469 0.194-0.175 0.175-0.194 0.231-0.194 0.575 0 0.981 0.519 1.906 1.381 2.469 0.206 0.137 0.5 0.281 0.656 0.325l0.275 0.081v0.462c0 0.45 0.006 0.475 0.212 0.681 0.288 0.288 0.631 0.3 0.925 0.031 0.194-0.169 0.206-0.219 0.238-0.669l0.031-0.488 0.256-0.075c0.719-0.206 1.456-0.844 1.806-1.55 0.313-0.625 0.413-1.4 0.262-2.012-0.156-0.619-0.394-1.063-0.825-1.5-0.556-0.569-1.2-0.85-2.094-0.931-0.775-0.069-1.275-0.369-1.556-0.944-0.394-0.788-0.106-1.738 0.663-2.163 1.087-0.613 2.313 0.063 2.488 1.369 0.050 0.4 0.212 0.619 0.525 0.712 0.2 0.056 0.275 0.050 0.475-0.044 0.319-0.15 0.431-0.425 0.375-0.925-0.094-0.781-0.425-1.444-0.994-1.95-0.319-0.294-1.087-0.712-1.3-0.712-0.094 0-0.113-0.056-0.113-0.344s-0.031-0.375-0.169-0.531c-0.188-0.212-0.556-0.3-0.806-0.194z"></path>
</symbol>

<symbol id="icon-traumatology" viewBox="0 0 32 32">
<path d="M6.85 0.175c-0.213 0.225-0.269 0.556-0.144 0.8 0.056 0.1 1.919 2 4.15 4.219 3.688 3.675 4.088 4.056 4.456 4.231 0.756 0.363 1.481 0.394 2.462 0.1 1.669-0.5 3.2 0.406 3.481 2.056 0.169 0.994-0.331 2.088-1.206 2.644-0.125 0.081-0.406 0.206-0.625 0.281-0.35 0.119-0.475 0.125-1.069 0.094-0.775-0.050-0.925 0-1.081 0.375-0.075 0.175-0.075 0.281-0.012 0.619 0.188 1.025-0.431 2.269-1.363 2.737-0.731 0.363-1.6 0.387-2.3 0.056-1.256-0.587-1.825-1.913-1.406-3.294 0.1-0.325 0.131-0.606 0.131-1.094 0.006-0.731-0.113-1.162-0.45-1.681-0.1-0.156-2.594-2.7-5.544-5.65-5.219-5.213-5.369-5.356-5.6-5.356-0.275 0-0.575 0.137-0.669 0.306-0.031 0.069-0.063 0.256-0.063 0.425v0.3l5.344 5.344c4.138 4.138 5.369 5.406 5.463 5.625 0.169 0.363 0.169 0.887 0.006 1.5-0.294 1.088-0.206 2.019 0.262 2.994 0.481 1.006 1.506 1.831 2.612 2.106 0.619 0.156 1.762 0.1 2.375-0.119 0.919-0.325 1.744-1.063 2.181-1.95 0.219-0.444 0.444-1.25 0.444-1.594v-0.231l0.456-0.037c1.475-0.113 2.863-1.238 3.356-2.731 0.188-0.563 0.231-1.506 0.1-2.125-0.125-0.613-0.512-1.381-0.913-1.825-0.419-0.469-1.113-0.925-1.694-1.119-0.406-0.131-0.569-0.15-1.369-0.144-0.775 0-0.962 0.019-1.275 0.137-0.438 0.162-0.981 0.181-1.325 0.037-0.175-0.069-1.363-1.213-4.306-4.156l-4.069-4.056h-0.313c-0.263 0-0.344 0.031-0.487 0.175z"></path>
<path d="M16.181 0.181c-0.225 0.231-0.256 0.65-0.056 0.894 0.069 0.087 2.438 1.944 5.262 4.119 4.481 3.45 5.25 4.069 5.956 4.775 0.944 0.944 1.488 1.681 2.056 2.781 0.488 0.944 0.8 1.825 1.019 2.869 0.15 0.694 0.169 0.937 0.169 2.006l0.006 1.219-0.956 6.269c-0.531 3.45-0.944 6.338-0.925 6.412 0.019 0.081 0.113 0.219 0.2 0.306 0.288 0.294 0.9 0.206 1.087-0.144 0.038-0.069 0.494-2.9 1.012-6.294l0.95-6.175v-1.563c0-1.462-0.006-1.613-0.163-2.344-0.431-2.006-1.344-3.912-2.606-5.463-0.825-1.006-1.762-1.787-7.038-5.85l-5.188-4h-0.3c-0.25 0-0.337 0.031-0.488 0.181z"></path>
<path d="M0.3 9.412c-0.225 0.119-0.3 0.269-0.3 0.613 0 0.281 0 0.287 3.712 4.694 2.038 2.425 3.887 4.656 4.1 4.962 1.113 1.569 1.9 3.306 2.369 5.2 0.35 1.406 0.4 1.887 0.438 4.412l0.037 2.325 0.181 0.188c0.156 0.163 0.231 0.194 0.494 0.194 0.25 0 0.331-0.031 0.488-0.181l0.181-0.181v-2.181c0-2.35-0.056-3.081-0.35-4.481-0.244-1.156-0.775-2.681-1.338-3.825-0.856-1.744-1.344-2.394-5.344-7.15-1.981-2.356-3.7-4.375-3.813-4.487-0.244-0.225-0.556-0.262-0.856-0.1z"></path>
<path d="M24.738 14.706c-0.637 0.181-1.119 0.644-1.519 1.45-0.431 0.863-0.55 1.387-0.55 2.469-0.006 0.738 0.019 1.012 0.131 1.469 0.288 1.156 0.869 2.019 1.619 2.387 0.319 0.15 0.431 0.175 0.925 0.175 0.469 0 0.613-0.025 0.875-0.156 0.475-0.231 0.856-0.656 1.144-1.256 0.844-1.794 0.881-3.444 0.1-5.038-0.5-1.012-1.119-1.494-2.006-1.556-0.25-0.012-0.544 0.012-0.719 0.056zM25.756 16.194c0.181 0.125 0.538 0.775 0.719 1.306 0.094 0.262 0.119 0.519 0.113 1.094 0 0.65-0.025 0.819-0.169 1.238-0.356 1.019-0.688 1.481-1.075 1.481-0.144 0-0.519-0.219-0.644-0.369-0.569-0.712-0.806-2.269-0.519-3.4 0.319-1.238 0.95-1.781 1.575-1.35z"></path>
<path d="M18.006 21.406c-1.45 0.319-2.681 1.544-3.069 3.063-0.156 0.613-0.244 2.225-0.262 5.012l-0.019 2.131 0.181 0.194c0.156 0.163 0.231 0.194 0.481 0.194 0.375 0 0.6-0.175 0.681-0.531 0.031-0.137 0.063-0.981 0.063-1.875 0.006-1.988 0.094-4.131 0.194-4.594 0.1-0.494 0.387-1.063 0.719-1.431 0.344-0.381 1-0.725 1.569-0.825 1.594-0.281 3.556 1.25 3.994 3.113 0.2 0.844 0.019 1.931-0.538 3.238-0.469 1.1-0.744 2.113-0.663 2.431 0.075 0.3 0.306 0.475 0.631 0.475s0.5-0.075 0.594-0.244c0.031-0.069 0.156-0.438 0.275-0.831 0.119-0.387 0.35-1.019 0.506-1.394 0.444-1.050 0.606-1.731 0.644-2.675 0.031-0.913-0.031-1.337-0.313-2.069-0.387-0.994-1.425-2.244-2.319-2.781-1.038-0.619-2.256-0.837-3.35-0.6z"></path>
</symbol>

<symbol id="icon-stages" viewBox="0 0 32 32">
<path d="M1.45 2.163c-0.4 0.2-0.675 0.519-0.794 0.925-0.137 0.469-0.137 25.356 0 25.825 0.119 0.406 0.394 0.725 0.794 0.925l0.325 0.163h11.963c8.9 0 12.031-0.019 12.206-0.075 0.344-0.1 0.738-0.456 0.906-0.825 0.144-0.306 0.15-0.381 0.15-1.706 0-1.175-0.012-1.4-0.1-1.481-0.119-0.119-0.481-0.131-0.575-0.019-0.038 0.044-0.075 0.606-0.087 1.425l-0.019 1.35-0.175 0.225c-0.106 0.144-0.256 0.25-0.406 0.294-0.156 0.044-4.037 0.063-11.881 0.063-11.613 0-11.656 0-11.919-0.125-0.506-0.25-0.462 0.769-0.462-11.431v-10.881h8.469l0.313-0.15c0.406-0.194 0.662-0.469 0.912-1 0.306-0.65 0.488-0.744 1.469-0.775 1.456-0.050 1.719 0.050 2.094 0.794 0.287 0.556 0.481 0.769 0.894 0.975l0.313 0.156h10.412v1.706c0 1.581 0.006 1.719 0.113 1.813 0.144 0.131 0.319 0.137 0.5 0.006l0.137-0.094v-7.025l-0.15-0.319c-0.169-0.369-0.563-0.725-0.906-0.825-0.175-0.056-3.306-0.075-12.206-0.075h-11.963l-0.325 0.163zM25.637 2.813c0.15 0.044 0.3 0.15 0.406 0.294l0.175 0.225 0.019 1.369 0.019 1.362h-2.156c-1.369 0-2.219-0.025-2.331-0.069-0.275-0.1-0.519-0.369-0.688-0.744-0.175-0.4-0.506-0.763-0.863-0.956-0.231-0.131-0.337-0.138-1.594-0.138-1.275 0-1.356 0.006-1.606 0.144-0.381 0.2-0.656 0.5-0.875 0.956-0.106 0.219-0.244 0.45-0.313 0.513-0.119 0.1-0.125 0.1-0.225 0-0.050-0.063-0.188-0.306-0.3-0.537-0.231-0.494-0.613-0.862-1.037-1.006-0.412-0.144-2.438-0.144-2.844 0-0.431 0.144-0.781 0.481-1.025 0.981-0.262 0.544-0.313 0.6-0.619 0.737-0.231 0.106-0.519 0.119-4.325 0.119h-4.081v-1.35c0-1.538 0.025-1.644 0.469-1.844 0.237-0.112 0.719-0.119 11.906-0.119 7.856 0 11.731 0.019 11.887 0.063zM19.587 4.938c0.356 0.081 0.544 0.244 0.769 0.662 0.113 0.2 0.206 0.388 0.206 0.412 0 0.031-0.869 0.050-1.938 0.050-1.063 0-1.938-0.013-1.938-0.025s0.069-0.175 0.15-0.356c0.294-0.662 0.594-0.8 1.725-0.8 0.431 0 0.894 0.025 1.025 0.056z"></path>
<path d="M2.837 3.375c-0.512 0.112-0.837 0.519-0.837 1.025 0 0.55 0.344 0.969 0.881 1.069 0.631 0.119 1.244-0.406 1.244-1.063 0-0.675-0.631-1.181-1.288-1.031z"></path>
<path d="M5.381 3.375c-0.662 0.15-1.006 0.894-0.7 1.513 0.188 0.388 0.5 0.581 0.944 0.581 0.438 0 0.756-0.194 0.938-0.569 0.406-0.831-0.287-1.725-1.181-1.525z"></path>
<path d="M8.025 3.375c-0.513 0.112-0.838 0.519-0.838 1.025 0 0.55 0.344 0.969 0.881 1.069 0.631 0.119 1.244-0.406 1.244-1.063 0-0.675-0.631-1.181-1.287-1.031z"></path>
<path d="M3.431 9.044c-0.069 0.081-0.094 0.588-0.106 2.563l-0.019 2.456 0.313 0.313h8.075l0.156-0.162c0.125-0.119 0.15-0.194 0.119-0.325-0.019-0.094-0.081-0.206-0.137-0.25-0.081-0.056-0.963-0.075-3.906-0.075h-3.8v-3.875h19.294l0.038 0.262c0.038 0.294 0.169 0.425 0.419 0.425 0.288 0 0.375-0.169 0.375-0.731 0-0.406-0.019-0.519-0.113-0.6-0.106-0.1-0.919-0.106-10.369-0.106-9.456 0-10.262 0.006-10.338 0.106z"></path>
<path d="M14.875 11.088c-0.925 0.262-1.575 0.956-1.744 1.881-0.088 0.481-0.094 9.25-0.006 9.719 0.144 0.769 0.619 1.4 1.3 1.725 0.281 0.137 0.475 0.181 0.906 0.2l0.544 0.025v0.875c0 0.85 0.006 0.869 0.163 1.031 0.1 0.1 0.206 0.15 0.294 0.131 0.075-0.012 0.788-0.481 1.581-1.038l1.444-1.012 10.363-0.031 0.369-0.181c0.494-0.244 0.875-0.637 1.119-1.15l0.2-0.419 0.019-4.838c0.012-4.219 0.006-4.881-0.081-5.213-0.181-0.7-0.669-1.287-1.337-1.6l-0.35-0.162-7.25-0.012c-5.675-0.006-7.313 0.006-7.531 0.069zM29.756 11.988c0.375 0.194 0.706 0.581 0.806 0.938 0.094 0.35 0.087 9.512-0.012 9.838-0.1 0.331-0.544 0.819-0.875 0.962-0.256 0.113-0.556 0.119-5.463 0.137l-5.2 0.019-2.294 1.606-0.019-0.694c-0.012-0.512-0.044-0.725-0.113-0.8-0.075-0.081-0.244-0.113-0.794-0.131-1.019-0.044-1.444-0.275-1.769-0.956l-0.15-0.313v-9.5l0.15-0.313c0.181-0.375 0.475-0.669 0.85-0.838 0.275-0.125 0.375-0.131 7.412-0.131h7.137l0.331 0.175z"></path>
<path d="M21.669 13.438c-0.644 0.162-1.281 0.662-1.569 1.244-0.087 0.169-0.194 0.506-0.238 0.75-0.063 0.381-0.063 0.45 0.031 0.594 0.081 0.125 0.163 0.163 0.325 0.163 0.256 0 0.406-0.181 0.406-0.5 0-0.525 0.581-1.269 1.113-1.425 1.087-0.325 2.137 0.406 2.137 1.494 0 0.65-0.225 1.050-0.856 1.525-0.756 0.563-1.175 1.319-1.131 2.044 0.019 0.288 0.038 0.337 0.194 0.413 0.137 0.069 0.2 0.069 0.337 0 0.144-0.069 0.181-0.144 0.25-0.512 0.094-0.531 0.331-0.931 0.706-1.206 0.65-0.475 0.806-0.65 1.044-1.125 0.225-0.462 0.238-0.506 0.238-1.106 0-0.55-0.019-0.675-0.169-0.988-0.231-0.494-0.675-0.95-1.15-1.181-0.325-0.162-0.488-0.2-0.913-0.219-0.288-0.012-0.625 0.006-0.756 0.037z"></path>
<path d="M21.975 20.431c-0.081 0.094-0.1 0.212-0.087 0.606 0.019 0.462 0.031 0.494 0.194 0.587 0.15 0.081 0.188 0.081 0.344 0 0.156-0.094 0.169-0.125 0.188-0.587 0.019-0.556-0.063-0.725-0.363-0.725-0.094 0-0.219 0.050-0.275 0.119z"></path>
<path d="M3.438 16.156c-0.050 0.056-0.081 0.181-0.081 0.281 0 0.4-0.256 0.375 4.319 0.363l4.162-0.019 0.1-0.175c0.081-0.15 0.081-0.188 0-0.344l-0.1-0.169-4.162-0.019c-3.706-0.012-4.169 0-4.237 0.081z"></path>
<path d="M3.525 19.050c-0.244 0.156-0.225 0.563 0.031 0.694 0.081 0.050 1.425 0.069 4.131 0.069h4.006l0.15-0.156c0.188-0.181 0.2-0.363 0.031-0.531-0.125-0.125-0.206-0.125-4.2-0.125-2.244 0-4.112 0.025-4.15 0.050z"></path>
<path d="M3.469 22.094c-0.087 0.081-0.156 0.181-0.156 0.219 0 0.1 0.131 0.331 0.212 0.387 0.038 0.025 1.906 0.050 4.15 0.050 3.994 0 4.075 0 4.2-0.125 0.169-0.169 0.156-0.35-0.031-0.531l-0.15-0.156h-8.075l-0.15 0.156z"></path>
</symbol>

    </defs>
</svg>
